<?xml version="1.0" encoding="UTF-8"?>
<svg xmlns="http://www.w3.org/2000/svg" xmlns:xlink="http://www.w3.org/1999/xlink" width="120px" height="75px" viewBox="0 0 120 75" version="1.1">
<defs>
<clipPath id="clip1">
  <path d="M 16 0.03125 L 104 0.03125 L 104 75 L 16 75 Z M 16 0.03125 "/>
</clipPath>
<clipPath id="clip2">
  <path d="M 0.0234375 21.585938 L 119.832031 21.585938 L 119.832031 53.472656 L 0.0234375 53.472656 Z M 0.0234375 21.585938 "/>
</clipPath>
</defs>
<g id="surface1">
<g clip-path="url(#clip1)" clip-rule="nonzero">
<path style=" stroke:none;fill-rule:nonzero;fill:rgb(100%,100%,100%);fill-opacity:1;" d="M 16.695312 75.0625 L 25.457031 59.851562 L 27.625 59.851562 L 20.007812 73.074219 L 99.847656 73.074219 L 92.230469 59.851562 L 94.398438 59.851562 L 103.160156 75.0625 Z M 59.925781 0 L 68.6875 15.210938 L 66.519531 15.210938 L 59.925781 3.765625 L 53.335938 15.210938 L 51.167969 15.210938 Z M 59.925781 0 "/>
</g>
<g clip-path="url(#clip2)" clip-rule="nonzero">
<path style=" stroke:none;fill-rule:nonzero;fill:rgb(100%,100%,100%);fill-opacity:1;" d="M 0.0273438 40.597656 L 0.0273438 22.199219 L 3 22.199219 L 3 40.683594 C 3 44.21875 3.867188 46.96875 5.601562 48.9375 C 7.332031 50.910156 9.769531 51.894531 12.917969 51.894531 C 14.898438 51.894531 16.625 51.507812 18.097656 50.730469 C 19.566406 49.960938 20.703125 48.890625 21.507812 47.515625 C 22.304688 46.144531 22.675781 44.566406 22.617188 42.785156 L 21.875 22.199219 L 24.84375 22.199219 L 24.101562 42.785156 C 23.984375 46.289062 22.945312 48.949219 20.984375 50.757812 C 19.015625 52.566406 16.207031 53.472656 12.566406 53.472656 C 8.636719 53.472656 5.5625 52.324219 3.347656 50.03125 C 1.132812 47.742188 0.0273438 44.597656 0.0273438 40.597656 Z M 59.449219 49.09375 L 59.714844 49.09375 L 59.449219 51.765625 C 58.636719 52.117188 57.644531 52.421875 56.480469 52.683594 C 55.316406 52.949219 54.136719 53.144531 52.941406 53.28125 C 51.746094 53.410156 50.683594 53.472656 49.75 53.472656 C 47.390625 53.472656 45.207031 53.070312 43.195312 52.265625 C 41.1875 51.464844 39.429688 50.347656 37.925781 48.917969 C 36.429688 47.488281 35.257812 45.800781 34.414062 43.855469 C 33.570312 41.917969 33.148438 39.808594 33.148438 37.53125 C 33.148438 35.253906 33.570312 33.140625 34.414062 31.195312 C 35.257812 29.257812 36.429688 27.574219 37.925781 26.144531 C 39.429688 24.710938 41.1875 23.59375 43.195312 22.789062 C 45.207031 21.988281 47.390625 21.585938 49.75 21.585938 C 50.710938 21.585938 51.789062 21.660156 52.984375 21.804688 C 54.179688 21.953125 55.34375 22.152344 56.480469 22.402344 C 57.617188 22.648438 58.578125 22.929688 59.363281 23.25 L 59.144531 25.703125 L 58.882812 25.703125 C 57.804688 24.710938 56.449219 23.953125 54.820312 23.425781 C 53.1875 22.902344 51.5 22.636719 49.75 22.636719 C 47.128906 22.636719 44.820312 23.257812 42.820312 24.496094 C 40.828125 25.738281 39.269531 27.476562 38.144531 29.707031 C 37.027344 31.945312 36.46875 34.550781 36.46875 37.53125 C 36.46875 40.539062 37.027344 43.152344 38.144531 45.371094 C 39.269531 47.589844 40.824219 49.316406 42.804688 50.554688 C 44.785156 51.800781 47.101562 52.421875 49.75 52.421875 C 51.730469 52.421875 53.574219 52.101562 55.273438 51.457031 C 56.980469 50.816406 58.375 50.027344 59.449219 49.09375 Z M 67.097656 52.859375 L 63.90625 52.859375 L 75.660156 22.199219 L 78.371094 22.199219 L 90.125 52.859375 L 86.933594 52.859375 L 81.515625 38.492188 L 71.597656 38.492188 Z M 76.230469 24.476562 L 75.96875 24.476562 L 71.902344 37.441406 L 81.125 37.441406 Z M 97.195312 52.859375 L 97.195312 22.199219 L 103.050781 22.199219 C 106.136719 22.199219 108.535156 22.851562 110.242188 24.152344 C 111.941406 25.449219 112.792969 27.265625 112.792969 29.601562 C 112.792969 31.414062 112.261719 32.917969 111.203125 34.113281 C 110.136719 35.3125 108.597656 36.113281 106.589844 36.523438 L 106.589844 36.785156 C 108.511719 37.164062 110.082031 38.070312 111.308594 39.5 C 112.53125 40.933594 113.449219 42.699219 114.058594 44.800781 C 114.613281 46.726562 115.160156 48.222656 115.703125 49.285156 C 116.238281 50.355469 116.835938 51.121094 117.492188 51.589844 C 118.148438 52.058594 118.925781 52.394531 119.828125 52.597656 L 119.828125 52.859375 L 118.035156 52.859375 C 116.753906 52.859375 115.699219 52.625 114.871094 52.160156 C 114.039062 51.691406 113.332031 50.902344 112.75 49.792969 C 112.167969 48.683594 111.613281 47.152344 111.089844 45.195312 C 110.242188 42.1875 109.121094 40.054688 107.722656 38.800781 C 106.324219 37.546875 104.621094 36.917969 102.613281 36.917969 L 102.351562 36.917969 L 102.351562 36.128906 L 102.613281 36.128906 C 107.300781 36.128906 109.648438 33.96875 109.648438 29.648438 C 109.648438 25.382812 107.449219 23.25 103.050781 23.25 L 100.164062 23.25 L 100.164062 52.859375 Z M 97.195312 52.859375 "/>
</g>
</g>
</svg>
